<svg xmlns="http://www.w3.org/2000/svg" viewBox="0 0 1000 1000"><path fill="#E6E6E6" d="M500,618A118,118,0,1,1,618,500,118.1,118.1,0,0,1,500,618Zm0-153.17A35.21,35.21,0,1,0,535.21,500,35.24,35.24,0,0,0,500,464.79Z"/><path fill="#E6E6E6" d="M971.14,448.94H900a399.1,399.1,0,0,0-81.05-195.66L869.25,203a28.86,28.86,0,0,0,0-40.81l-31.39-31.39a28.86,28.86,0,0,0-40.81,0l-50.33,50.32a399.1,399.1,0,0,0-195.66-81V28.86A28.86,28.86,0,0,0,522.2,0H477.8a28.86,28.86,0,0,0-28.86,28.86V100a399.1,399.1,0,0,0-195.66,81.05L203,130.75a28.86,28.86,0,0,0-40.81,0l-31.39,31.39a28.86,28.86,0,0,0,0,40.81l50.32,50.33a399.1,399.1,0,0,0-81,195.66H28.86A28.86,28.86,0,0,0,0,477.8v44.4a28.86,28.86,0,0,0,28.86,28.86H100a399.1,399.1,0,0,0,81.05,195.66l-50.32,50.33a28.86,28.86,0,0,0,0,40.81l31.39,31.39a28.86,28.86,0,0,0,40.81,0l50.33-50.32A399.1,399.1,0,0,0,448.94,900v71.16A28.86,28.86,0,0,0,477.8,1000h44.4a28.86,28.86,0,0,0,28.86-28.86V900a399.1,399.1,0,0,0,195.66-81.05l50.33,50.32a28.86,28.86,0,0,0,40.81,0l31.39-31.39a28.86,28.86,0,0,0,0-40.81l-50.32-50.33A399.1,399.1,0,0,0,900,551.06h71.16A28.86,28.86,0,0,0,1000,522.2V477.8A28.86,28.86,0,0,0,971.14,448.94ZM500,811.62c-171.83,0-311.62-139.79-311.62-311.62S328.17,188.38,500,188.38,811.62,328.17,811.62,500,671.83,811.62,500,811.62Z"/></svg>